<svg width="80" height="80" viewBox="0 0 80 80" fill="none" xmlns="http://www.w3.org/2000/svg">
<path d="M36.4167 11.8333H11.3334C9.43263 11.8333 7.60977 12.5883 6.26575 13.9323C4.92174 15.2763 4.16669 17.0992 4.16669 18.9999V69.1666C4.16669 71.0673 4.92174 72.8902 6.26575 74.2342C7.60977 75.5782 9.43263 76.3333 11.3334 76.3333H61.5C63.4007 76.3333 65.2236 75.5782 66.5676 74.2342C67.9116 72.8902 68.6667 71.0673 68.6667 69.1666V44.0833M63.2917 6.45827C64.7172 5.03273 66.6507 4.23187 68.6667 4.23187C70.6827 4.23187 72.6161 5.03273 74.0417 6.45827C75.4672 7.88381 76.2681 9.81725 76.2681 11.8333C76.2681 13.8493 75.4672 15.7827 74.0417 17.2083L40 51.2499L25.6667 54.8333L29.25 40.4999L63.2917 6.45827Z" stroke="#A0AEC0" stroke-width="7.16667" stroke-linecap="round"/>
</svg>
